<svg width="93" height="110" viewBox="0 0 93 110" fill="none" xmlns="http://www.w3.org/2000/svg">
<g clip-path="url(#clip0)">
<path d="M22.8823 81.2236L22.2969 77.0468C21.7879 73.4338 22.1188 70.2051 23.2641 67.3095C24.4094 64.4395 26.8019 61.1852 30.4416 57.6234C33.954 54.241 36.2192 51.6016 37.2118 49.6542C38.2045 47.7067 38.5608 45.6567 38.2554 43.4787C37.9245 41.0443 36.7537 39.3018 34.7939 38.3025C32.8341 37.2775 30.238 36.9956 27.031 37.4569C21.4316 38.2512 15.3231 40.9931 8.68006 45.708L0.84082 34.2538C8.5019 28.3858 16.9774 24.7727 26.2929 23.4403C33.9794 22.3384 40.3425 23.3378 45.382 26.4127C50.4215 29.4876 53.3994 34.1001 54.2647 40.3012C54.8501 44.4268 54.4175 48.1167 52.9667 51.3966C51.5159 54.651 48.4617 58.5459 43.7785 63.0302C40.5715 66.2076 38.5863 68.5651 37.8481 70.0769C37.0846 71.5888 36.881 73.485 37.1864 75.74L37.7209 79.0968L22.8823 81.2236ZM23.8241 100.724C23.3914 97.5721 23.875 95.0609 25.3257 93.2159C26.7765 91.3709 29.0926 90.2178 32.2996 89.7566C35.4048 89.321 37.8991 89.8078 39.8334 91.2172C41.7678 92.6265 42.9386 94.8815 43.3712 97.9564C43.7785 100.929 43.2694 103.389 41.7932 105.336C40.317 107.284 38.0518 108.488 34.9975 108.924C31.8669 109.359 29.3217 108.873 27.3873 107.463C25.4275 106.003 24.2567 103.773 23.8241 100.724Z" fill="#267DFF"/>
<path d="M32.8849 110C30.5179 110 28.4817 109.385 26.8274 108.181C24.6639 106.592 23.3404 104.132 22.8823 100.826C22.3987 97.4184 22.9841 94.6509 24.5876 92.6009C26.1911 90.551 28.7363 89.2697 32.1723 88.7829C35.5065 88.296 38.2808 88.8598 40.3933 90.3972C42.5313 91.9603 43.8548 94.4459 44.3129 97.7771C44.7711 100.98 44.1602 103.722 42.5313 105.874C40.9023 108.027 38.408 109.359 35.0993 109.821C34.3612 109.949 33.5976 110 32.8849 110ZM34.4121 90.551C33.8012 90.551 33.1395 90.6022 32.4523 90.7047C29.5253 91.1147 27.3873 92.1653 26.0892 93.8053C24.8166 95.4453 24.384 97.7002 24.7657 100.57C25.1475 103.363 26.191 105.362 27.9472 106.618C29.678 107.873 31.9941 108.309 34.8702 107.899C37.6445 107.489 39.7316 106.413 41.0296 104.696C42.3531 102.928 42.8113 100.75 42.4295 98.0333C42.0477 95.2403 40.9787 93.1903 39.2734 91.9347C37.9754 91.0378 36.3464 90.551 34.4121 90.551ZM22.0933 82.2999L21.3806 77.175C20.8461 73.4338 21.2024 69.9745 22.4241 66.9508C23.6204 63.9527 26.1147 60.5959 29.8307 56.9316C33.2667 53.6516 35.4811 51.0379 36.4228 49.2186C37.3136 47.4761 37.6445 45.5799 37.3645 43.6068C37.0591 41.48 36.0919 40.0194 34.4121 39.1481C32.6304 38.2256 30.2125 37.9694 27.2346 38.405C21.8133 39.1737 15.7812 41.8899 9.31632 46.4767L8.52731 47.0405L-0.355469 34.0232L0.357189 33.4595C8.09462 27.5146 16.8247 23.799 26.242 22.4665C34.1066 21.3391 40.7496 22.3897 45.9673 25.5415C51.2614 28.7446 54.392 33.6645 55.3082 40.1218C55.9191 44.4011 55.4609 48.3217 53.9338 51.7298C52.4576 55.0866 49.2761 59.1096 44.5166 63.6708C41.4114 66.7458 39.477 69.0263 38.7898 70.4613C38.1281 71.7938 37.9245 73.5106 38.2299 75.5606L38.8407 79.8912L22.0933 82.2999ZM29.8307 36.2782C31.9432 36.2782 33.7503 36.6625 35.252 37.4313C37.4918 38.61 38.8407 40.5831 39.2225 43.3505C39.5534 45.708 39.1716 47.9886 38.0772 50.1154C37.0082 52.1654 34.7429 54.856 31.1033 58.3409C27.5909 61.8002 25.2493 64.952 24.1294 67.6939C23.035 70.4101 22.7296 73.5106 23.2132 76.9187L23.6713 80.1218L36.6009 78.2768L36.2701 75.8425C35.9392 73.4081 36.1683 71.3069 37.0082 69.6157C37.8227 67.9757 39.8079 65.5927 43.1167 62.3127C47.6981 57.9053 50.7269 54.0872 52.1013 50.961C53.4502 47.8861 53.8575 44.3243 53.323 40.4037C52.483 34.4588 49.7342 30.1539 44.8983 27.2071C40.0624 24.2603 33.8521 23.3121 26.4456 24.3628C17.6392 25.6184 9.46903 29.0008 2.16429 34.4332L8.93454 44.3243C15.3739 39.8912 21.4061 37.2519 26.9037 36.4575C27.9472 36.355 28.9144 36.2782 29.8307 36.2782Z" fill="#0959A7"/>
<path d="M68.1645 37.4175C68.4954 35.9569 69.1317 34.9319 70.0989 34.3681C71.0406 33.8044 72.2623 33.7019 73.764 34.035C75.2147 34.3681 76.2328 35.0087 76.8437 35.9569C77.4545 36.905 77.6072 38.0837 77.2764 39.5187C76.9709 40.9024 76.3092 41.8761 75.342 42.4911C74.3748 43.1061 73.1531 43.2342 71.7533 42.9011C70.3025 42.568 69.259 41.9274 68.6481 40.9536C67.9863 40.0312 67.8336 38.8268 68.1645 37.4175ZM71.0406 28.6795L71.4733 26.732C71.8551 25.0664 72.5423 23.6827 73.5604 22.6065C74.553 21.5302 76.1565 20.5053 78.3708 19.5571C80.4833 18.6603 81.9341 17.8915 82.6977 17.1997C83.4612 16.5078 83.9703 15.6622 84.1993 14.6629C84.4538 13.5354 84.2248 12.5616 83.5376 11.7929C82.8249 10.9985 81.7305 10.4348 80.2543 10.0761C77.6581 9.4867 74.5021 9.64044 70.7861 10.5886L69.2335 4.20804C73.5858 2.92681 77.9381 2.77306 82.2904 3.79804C85.8537 4.61803 88.5007 6.1555 90.206 8.35922C91.9113 10.5629 92.4458 13.1254 91.784 15.9953C91.3514 17.8915 90.5369 19.4546 89.3407 20.659C88.1699 21.8377 86.1591 23.0421 83.334 24.2208C81.3741 25.0664 80.127 25.7839 79.5161 26.322C78.9307 26.8601 78.5235 27.6545 78.269 28.7051L77.9127 30.2682L71.0406 28.6795Z" fill="#267DFF"/>
<path d="M73.1277 44.0798C72.6187 44.0798 72.0587 44.003 71.4988 43.8748C69.7935 43.4905 68.5463 42.6961 67.8082 41.5174C67.0447 40.3387 66.8665 38.8781 67.2228 37.2125C67.6046 35.4956 68.4191 34.2656 69.5899 33.5482C70.7607 32.8563 72.2369 32.7025 73.9422 33.1125C75.622 33.4969 76.8437 34.2913 77.6073 35.4444C78.3708 36.6231 78.549 38.0837 78.1672 39.7493C77.8109 41.3636 76.9964 42.568 75.8002 43.3367C75.0366 43.8236 74.1458 44.0798 73.1277 44.0798ZM69.0808 37.6481C68.8263 38.8012 68.9281 39.7237 69.3863 40.4668C69.8698 41.2099 70.7098 41.7224 71.906 42.0043C73.0768 42.2861 74.0185 42.1836 74.7821 41.6968C75.5457 41.2099 76.0292 40.4412 76.2838 39.3137C76.5637 38.1349 76.4619 37.2125 75.9783 36.4693C75.4948 35.7262 74.6803 35.2394 73.484 34.9575C72.2623 34.6756 71.2443 34.7525 70.5316 35.1881C69.8698 35.6237 69.3608 36.4437 69.0808 37.6481ZM78.6508 31.4213L69.8953 29.397L70.5571 26.527C70.9643 24.6821 71.7533 23.1446 72.8477 21.9659C73.9422 20.7871 75.622 19.7109 77.9636 18.6859C79.9743 17.8403 81.3487 17.0972 82.0359 16.4822C82.6722 15.9185 83.054 15.2522 83.2322 14.4322C83.4358 13.6123 83.3085 12.9716 82.7995 12.4079C82.2396 11.7929 81.3233 11.306 80.0252 11.0242C77.5818 10.4604 74.553 10.6142 70.9897 11.511L70.0735 11.7417L68.1137 3.5418L68.979 3.28556C73.484 1.95308 78.0145 1.82496 82.4941 2.84994C86.261 3.72117 89.1116 5.38677 90.9442 7.76985C92.8276 10.2042 93.413 13.0485 92.7004 16.226C92.2168 18.3015 91.3259 20.044 90.0024 21.3509C88.7298 22.6321 86.6428 23.8877 83.6903 25.1177C81.4251 26.117 80.5343 26.7064 80.1779 27.0139C79.7453 27.4239 79.4144 28.0645 79.2108 28.9101L78.6508 31.4213ZM72.186 27.9364L77.2255 29.1151L77.3782 28.4745C77.6582 27.2445 78.1672 26.2708 78.9053 25.6045C79.5671 24.9895 80.8651 24.2464 82.9777 23.3496C85.6756 22.1965 87.5845 21.069 88.6789 19.9671C89.7225 18.8909 90.4606 17.4816 90.8678 15.7647C91.4532 13.151 90.9951 10.9217 89.4425 8.92296C87.8899 6.89862 85.3956 5.48927 82.0868 4.72053C78.2181 3.82367 74.2985 3.87492 70.3789 4.87428L71.4733 9.43545C74.9348 8.66671 77.9382 8.56421 80.4579 9.15358C82.1377 9.53795 83.4103 10.2042 84.2248 11.1267C85.1156 12.1517 85.4211 13.4329 85.0902 14.8679C84.8357 16.0722 84.2248 17.0972 83.3085 17.9172C82.4432 18.6859 80.9415 19.5059 78.7017 20.454C76.6401 21.3509 75.1384 22.299 74.2222 23.2727C73.3822 24.1952 72.7459 25.4508 72.4151 26.937L72.186 27.9364Z" fill="#0959A7"/>
</g>
<defs>
<clipPath id="clip0">
<rect width="93" height="110" fill="white"/>
</clipPath>
</defs>
</svg>
