<svg width="69" height="80" viewBox="0 0 69 80" fill="none" xmlns="http://www.w3.org/2000/svg">
<path d="M65.5466 33.4846C64.8486 33.4846 64.2832 34.1411 64.2832 34.9495V40.1698C64.2832 43.1654 62.1808 45.603 59.5971 45.603H52.3955C52.0603 45.603 51.7393 45.7568 51.502 46.0315L42.7714 56.1545V47.0679C42.7714 46.2585 42.2056 45.603 41.5079 45.603H23.4188C20.8351 45.603 18.7327 43.1659 18.7327 40.1698V18.0109C18.7327 15.0153 20.8351 12.5781 23.4188 12.5781H59.5971C62.1808 12.5781 64.2832 15.0153 64.2832 18.0109V23.2307C64.2832 24.0401 64.8486 24.6956 65.5466 24.6956C66.2439 24.6956 66.8101 24.0401 66.8101 23.2307V18.0109C66.8101 13.3998 63.5745 9.64844 59.5971 9.64844H23.4188C19.4414 9.64844 16.2058 13.3998 16.2058 18.0109V36.83H7.01005C4.3154 36.83 2.12256 39.3715 2.12256 42.4966V55.9952C2.12256 59.1203 4.3154 61.6618 7.01005 61.6618H10.8742L17.136 68.9224C17.3781 69.203 17.7014 69.3518 18.0299 69.3518C18.1926 69.3518 18.3572 69.3152 18.5132 69.2401C18.9854 69.0135 19.2933 68.4798 19.2933 67.887V61.6618H29.0494C31.7444 61.6618 33.9368 59.1203 33.9368 55.9952V48.5327H40.2445V59.6907C40.2445 60.2835 40.5525 60.8173 41.0247 61.0438C41.1806 61.1189 41.3449 61.1555 41.5079 61.1555C41.8368 61.1555 42.1598 61.0068 42.4014 60.7262L52.9187 48.5327H59.5971C63.5745 48.5327 66.8101 44.7813 66.8101 40.1698V34.9495C66.8101 34.1411 66.2439 33.4846 65.5466 33.4846ZM31.4104 55.9952C31.4104 57.5049 30.3515 58.7321 29.0494 58.7321H18.0299C17.3319 58.7321 16.7665 59.3886 16.7665 60.197V64.3507L12.2908 59.1615C12.0539 58.8869 11.7325 58.7321 11.3973 58.7321H7.01005C5.70832 58.7321 4.64941 57.5049 4.64941 55.9952V42.4966C4.64941 40.9874 5.70832 39.7597 7.01005 39.7597H16.2058V40.1698C16.2058 44.7813 19.4414 48.5327 23.4188 48.5327H31.4104V55.9952Z" fill="black"/>
<path d="M53.8263 19.2477H29.1895C28.4919 19.2477 27.9261 19.9037 27.9261 20.7125C27.9261 21.5219 28.4919 22.1774 29.1895 22.1774H53.8263C54.524 22.1774 55.0898 21.5219 55.0898 20.7125C55.0898 19.9037 54.524 19.2477 53.8263 19.2477Z" fill="black"/>
<path d="M55.0898 28.6232C55.0898 27.8143 54.524 27.1583 53.8263 27.1583H29.1895C28.4919 27.1583 27.9261 27.8143 27.9261 28.6232C27.9261 29.4325 28.4919 30.088 29.1895 30.088H53.8263C54.524 30.088 55.0898 29.4325 55.0898 28.6232Z" fill="black"/>
<path d="M29.1895 35.0685C28.4919 35.0685 27.9261 35.7245 27.9261 36.5333C27.9261 37.3427 28.4919 37.9982 29.1895 37.9982H43.4031C44.1007 37.9982 44.6665 37.3427 44.6665 36.5333C44.6665 35.7245 44.1007 35.0685 43.4031 35.0685H29.1895Z" fill="black"/>
<path d="M65.5466 27.6252C64.851 27.6252 64.2832 28.2835 64.2832 29.0901C64.2832 29.8971 64.851 30.5549 65.5466 30.5549C66.2423 30.5549 66.8101 29.8971 66.8101 29.0901C66.8101 28.2835 66.2423 27.6252 65.5466 27.6252Z" fill="black"/>
</svg>
