<svg width="443" height="761" viewBox="0 0 443 761" fill="none" xmlns="http://www.w3.org/2000/svg">
<g clip-path="url(#clip0)">
<path d="M102.538 560.845C104.768 563.975 109.657 571.265 120.592 570.621C128.955 570.107 136.074 564.318 139.204 556.557L223.859 378.956L183.032 357.86C179.216 355.502 160.346 380.629 158.631 384.745L113.645 477.833L102.538 560.845Z" fill="#267DFF"/>
<path d="M119.263 572.251C119.734 572.251 120.206 572.251 120.721 572.208C129.426 571.693 137.274 565.776 140.705 557.115L225.96 378.227L183.761 356.403C183.375 356.145 182.518 355.845 181.231 356.274C174.927 358.289 158.802 380.114 157.13 384.102L112.144 477.104L115.017 478.519L160.089 385.431C162.147 380.457 179.087 359.361 182.432 359.275L221.714 379.642L137.746 555.828C134.701 563.418 127.968 568.52 120.506 568.992C110.772 569.549 106.397 563.418 104.039 560.159L102.538 560.845L101.423 562.046C103.653 565.133 108.713 572.251 119.263 572.251Z" fill="black"/>
<path d="M102.538 560.845L48.9317 367.294C48.2026 363.22 50.7757 357.432 54.8927 357.732L95.6332 357.389L135.688 499.701L102.538 560.845Z" fill="#267DFF"/>
<path d="M100.994 561.274L104.082 560.416L50.4755 366.865C50.1324 364.892 50.9043 362.062 52.2766 360.519C53.0486 359.661 53.8634 359.275 54.764 359.361L94.3466 359.061L134.058 500.216L137.146 499.358L96.7482 355.845L54.8069 356.188C53.0486 356.059 51.2474 356.874 49.8322 358.418C47.7738 360.733 46.7016 364.506 47.2591 367.637L100.994 561.274Z" fill="black"/>
<path d="M208.978 759.371L244.572 333.634C244.915 333.549 245.258 333.506 245.558 333.42C246.845 333.163 248.132 332.905 249.418 332.648C252.463 332.048 255.551 331.49 258.681 330.976C286.042 326.474 315.804 325.659 343.679 326.688L337.118 759.371H208.978Z" fill="white"/>
<path d="M207.219 761H338.747L338.79 759.414L345.351 325.144L343.765 325.101C311.73 323.901 283.04 325.359 258.424 329.389C255.293 329.904 252.206 330.461 249.118 331.104L243.071 332.348L207.219 761ZM335.574 757.784H210.736L246.116 335.006L249.804 334.277C252.849 333.677 255.894 333.12 258.981 332.605C282.954 328.66 310.915 327.203 342.092 328.317L335.574 757.784Z" fill="black"/>
<path d="M421.172 759.371H339.133L343.722 326.731C346.595 326.817 349.425 326.945 352.256 327.074C358.817 327.417 365.293 327.803 371.554 328.317C413.967 329.947 455.437 359.961 436.867 426.68L434.209 746.464C434.123 753.625 428.291 759.371 421.172 759.371Z" fill="#267DFF"/>
<path d="M337.503 761H421.172C429.191 761 435.752 754.483 435.795 746.464L438.454 426.894C446.474 397.908 443.815 373.082 430.649 355.073C418.213 338.008 396.642 327.674 371.554 326.688C365.893 326.216 359.589 325.83 352.299 325.445C349.511 325.316 346.638 325.187 343.807 325.101L342.135 325.059L342.092 326.688L337.503 761ZM345.308 328.36C347.624 328.446 349.897 328.532 352.17 328.66C359.418 329.046 365.722 329.432 371.425 329.904C395.612 330.847 416.24 340.709 428.119 356.96C440.684 374.154 443.172 398.123 435.367 426.208L435.324 426.637L432.665 746.422C432.622 752.682 427.476 757.741 421.257 757.741H340.848L345.308 328.36Z" fill="black"/>
<path d="M164.506 759.371C157.302 759.371 151.469 753.539 151.469 746.336C151.598 638.326 154.257 394.821 154.257 394.821C170.253 338.865 244.572 333.634 244.572 333.634L209.192 759.371H164.506Z" fill="#267DFF"/>
<path d="M164.506 761H210.693L210.822 759.542L246.373 331.962L244.486 332.091C243.714 332.134 168.838 338.051 152.713 394.393L152.67 394.821C152.627 397.265 150.011 639.569 149.882 746.379C149.882 750.281 151.383 753.968 154.171 756.755C156.873 759.456 160.561 761 164.506 761ZM207.734 757.784H164.506C161.461 757.784 158.588 756.584 156.401 754.44C154.257 752.296 153.056 749.423 153.056 746.379C153.185 641.027 155.758 403.611 155.843 395.079C170.038 345.94 231.278 336.764 242.814 335.478L207.734 757.784Z" fill="black"/>
<path d="M227.633 180.002L226.217 158.435C257.866 156.677 289.43 158.435 317.305 172.37C318.42 172.927 319.149 174.042 319.235 175.286L320.735 196.939C323.094 231.37 304.396 260.956 279.223 262.671C254.05 264.386 231.578 237.587 229.219 203.156L227.633 180.002Z" fill="white"/>
<path d="M276.907 264.386C277.722 264.386 278.537 264.343 279.309 264.3C305.426 262.542 324.681 232.271 322.279 196.853L320.778 175.2C320.65 173.399 319.578 171.77 317.991 170.955C287.371 155.605 252.806 155.347 226.089 156.848L224.459 156.934L227.547 203.242C228.705 220.222 234.666 235.958 244.358 247.492C253.621 258.469 265.071 264.386 276.907 264.386ZM245.473 159.464C267.987 159.464 293.504 162.251 316.576 173.828C317.176 174.128 317.562 174.728 317.605 175.414L319.106 197.068C321.379 230.727 303.453 259.455 279.094 261.085C267.473 261.856 256.022 256.325 246.888 245.434C237.625 234.414 231.921 219.364 230.806 203.028L227.933 159.935C233.508 159.678 239.383 159.464 245.473 159.464Z" fill="black"/>
<path d="M238.397 249.893L236.081 215.977C235.18 202.642 239.683 190.422 247.274 182.146L306.069 212.332L306.755 222.666C312.716 222.28 317.948 227.725 318.42 234.929C318.892 241.875 314.689 247.835 309.028 248.564C309.328 249.293 309.628 250.065 309.671 250.88L314.088 318.07L324.166 324.115C324.166 324.115 312.03 331.49 307.27 337.965C304.096 342.339 300.794 347.827 296.977 352.501C295.905 352.415 294.833 352.415 293.761 352.501C287.243 353.015 282.74 353.187 278.494 350.786C273.648 345.597 269.746 339.637 267.344 333.077C268.802 330.804 270.646 328.66 272.619 326.688C272.576 326.517 272.49 326.345 272.49 326.174L270.003 289.341C253.449 286.897 239.812 270.518 238.397 249.893Z" fill="white"/>
<path d="M287.628 354.387C289.558 354.387 291.617 354.259 293.933 354.087C294.919 354.001 295.948 354.001 296.934 354.087L297.749 354.13L298.264 353.487C300.751 350.485 302.981 347.184 305.125 344.011C306.326 342.21 307.484 340.495 308.642 338.908C313.145 332.734 324.938 325.53 325.067 325.488L327.34 324.115L315.718 317.126L311.344 250.751C311.301 250.408 311.258 250.022 311.172 249.722C316.747 247.964 320.564 241.832 320.092 234.8C319.835 230.941 318.334 227.425 315.89 224.853C313.745 222.623 311.129 221.294 308.342 221.079L307.699 211.346L247.017 180.174L246.202 181.074C237.925 190.121 233.679 202.856 234.58 216.106L236.896 250.022C238.311 270.646 251.519 287.497 268.588 290.756L270.989 326.216C268.974 328.36 267.344 330.333 266.1 332.219L265.671 332.905L265.929 333.677C268.33 340.195 272.19 346.326 277.422 351.943L277.808 352.243C280.767 353.873 283.897 354.387 287.628 354.387ZM295.391 350.828C294.833 350.828 294.276 350.828 293.675 350.871C287.414 351.343 283.297 351.514 279.523 349.499C274.849 344.482 271.375 339.037 269.145 333.291C270.346 331.576 271.847 329.775 273.777 327.803L274.334 327.245L274.077 325.873L271.504 287.926L270.217 287.755C254.05 285.354 241.313 269.403 239.983 249.765L237.668 215.848C236.853 203.971 240.498 192.48 247.66 184.161L304.525 213.361L305.254 224.381L306.841 224.252C309.285 224.124 311.601 225.067 313.445 227.039C315.375 229.098 316.576 231.928 316.79 235.015C317.219 241.103 313.702 246.335 308.771 246.935L306.626 247.192L307.484 249.165C307.784 249.893 307.956 250.451 307.999 250.965L312.587 319.013L321.121 324.115C317.305 326.602 309.628 331.962 305.983 336.979C304.825 338.608 303.624 340.366 302.381 342.21C300.451 345.126 298.435 348.084 296.248 350.828C295.991 350.828 295.691 350.828 295.391 350.828Z" fill="black"/>
<path d="M284.927 225.496C285.141 228.068 283.597 230.298 281.453 230.47C279.309 230.641 277.422 228.712 277.207 226.139C276.993 223.566 278.537 221.337 280.681 221.165C282.825 220.994 284.712 222.923 284.927 225.496Z" fill="black"/>
<path d="M246.888 227.811C247.102 230.384 245.559 232.614 243.414 232.785C241.27 232.957 239.383 231.027 239.169 228.454C238.954 225.882 240.498 223.652 242.642 223.481C244.744 223.309 246.674 225.239 246.888 227.811Z" fill="black"/>
<path d="M263.999 252.595L258.681 253.023C257.438 253.109 256.194 252.68 255.336 251.78C254.478 250.88 254.093 249.679 254.264 248.478L258.081 222.837C258.209 221.851 259.11 221.165 260.182 221.337C261.169 221.465 261.898 222.366 261.726 223.352L257.909 248.993L258.381 249.465L263.699 249.036C264.728 248.95 265.586 249.679 265.671 250.665C265.757 251.651 265.028 252.509 263.999 252.595Z" fill="black"/>
<path d="M250.233 214.476C250.576 214.433 250.876 214.262 251.091 214.004C251.691 213.361 251.691 212.332 251.048 211.732C250.876 211.56 246.759 207.616 241.913 208.002C239.34 208.173 237.067 209.545 235.223 212.032C234.666 212.761 234.837 213.747 235.523 214.305C236.21 214.862 237.239 214.691 237.753 214.004C239.04 212.289 240.412 211.389 242.128 211.26C245.473 211.003 248.732 214.09 248.775 214.09C249.247 214.39 249.761 214.562 250.233 214.476Z" fill="black"/>
<path d="M287.414 219.493C287.757 219.45 288.1 219.278 288.315 218.978C288.915 218.335 288.872 217.306 288.229 216.706C288.143 216.62 279.823 209.245 270.603 217.864C269.96 218.464 269.917 219.493 270.517 220.136C271.118 220.779 272.147 220.822 272.79 220.222C279.909 213.619 285.827 218.893 286.085 219.107C286.428 219.45 286.942 219.579 287.414 219.493Z" fill="black"/>
<path d="M289.944 193.251C290.673 193.251 291.359 192.737 291.531 192.008C291.703 191.15 291.188 190.293 290.33 190.079L247.746 180.56C246.888 180.388 246.03 180.903 245.816 181.76C245.644 182.618 246.159 183.475 247.017 183.69L289.601 193.209C289.687 193.252 289.816 193.251 289.944 193.251Z" fill="black"/>
<path d="M303.196 194.795L297.063 193.166L303.196 194.795Z" fill="#6EBDFF"/>
<path d="M303.196 196.382C303.925 196.382 304.568 195.91 304.739 195.181C304.954 194.323 304.439 193.423 303.582 193.209L297.449 191.579C296.591 191.365 295.691 191.879 295.476 192.737C295.262 193.595 295.777 194.495 296.634 194.709L302.767 196.339C302.895 196.382 303.067 196.382 303.196 196.382Z" fill="black"/>
<path d="M253.063 169.969L228.061 168.254L253.063 169.969Z" fill="#6EBDFF"/>
<path d="M253.063 171.555C253.921 171.555 254.607 170.912 254.65 170.054C254.693 169.154 254.05 168.382 253.149 168.339L228.147 166.624C227.29 166.581 226.475 167.224 226.432 168.125C226.389 169.025 227.032 169.797 227.933 169.84L252.935 171.555C252.978 171.555 253.02 171.555 253.063 171.555Z" fill="black"/>
<path d="M239.04 176.915L228.319 176.057L239.04 176.915Z" fill="#6EBDFF"/>
<path d="M239.04 178.501C239.855 178.501 240.584 177.858 240.627 177.044C240.712 176.143 240.026 175.371 239.169 175.328L228.447 174.471C227.547 174.385 226.775 175.071 226.732 175.929C226.646 176.829 227.332 177.601 228.19 177.644L238.911 178.501C238.954 178.501 238.997 178.501 239.04 178.501Z" fill="black"/>
<path d="M151.684 681.461H163.477C164.378 681.461 165.107 680.732 165.107 679.832C165.107 678.931 164.378 678.202 163.477 678.202H151.684C150.783 678.202 150.054 678.931 150.054 679.832C150.054 680.732 150.783 681.461 151.684 681.461Z" fill="black"/>
<path d="M341.577 496.614H347.324C348.225 496.614 348.954 495.885 348.954 494.984C348.954 494.084 348.225 493.355 347.324 493.355H341.577C340.677 493.355 339.948 494.084 339.948 494.984C339.948 495.885 340.677 496.614 341.577 496.614Z" fill="black"/>
<path d="M321.765 488.767C315.251 488.767 309.971 483.488 309.971 476.976C309.971 470.463 315.251 465.184 321.765 465.184C328.278 465.184 333.558 470.463 333.558 476.976C333.558 483.488 328.278 488.767 321.765 488.767Z" fill="black"/>
<path d="M320.65 321.971C320.65 321.971 304.568 348.556 288.1 351.857L296.677 379.085C296.677 379.085 331.757 364.85 329.398 326.559L320.65 321.971Z" fill="white"/>
<path d="M295.648 381.229L297.278 380.586C297.621 380.457 333.387 365.45 330.985 326.474L330.942 325.573L320.049 319.87L319.277 321.157C319.106 321.414 303.367 347.184 287.757 350.271L285.999 350.614L295.648 381.229ZM327.812 327.546C329.27 358.975 304.268 373.554 297.663 376.855L290.159 353.015C304.568 348.856 317.862 329.389 321.25 324.115L327.812 327.546Z" fill="black"/>
<path d="M272.276 325.273C272.276 325.273 271.718 345.383 288.057 351.857L275.02 375.826C275.02 375.826 257.395 359.318 259.753 331.833L272.276 325.273Z" fill="white"/>
<path d="M275.492 378.442L290.373 351.043L288.701 350.357C273.648 344.397 273.948 325.487 273.948 325.316L274.034 322.572L258.338 330.804L258.252 331.662C255.851 359.618 273.262 376.298 274.034 376.984L275.492 378.442ZM285.827 352.629L274.72 373.125C270.689 368.537 259.839 354.087 261.34 332.862L270.818 327.889C271.289 333.548 273.734 346.798 285.827 352.629Z" fill="black"/>
<path d="M348.696 697.798H425.16V701.014H348.696V697.798Z" fill="black"/>
<path d="M441.37 403.611L402.302 565.047L441.37 403.611Z" fill="#6EBDFF"/>
<path d="M402.302 566.677C403.031 566.677 403.675 566.162 403.846 565.433L442.957 403.997C443.172 403.14 442.657 402.282 441.756 402.068C440.899 401.853 440.041 402.368 439.827 403.268L400.759 564.704C400.544 565.562 401.059 566.419 401.959 566.634C402.045 566.677 402.174 566.677 402.302 566.677Z" fill="black"/>
<path d="M351.956 550.169L382.189 407.47L351.956 550.169Z" fill="#6EBDFF"/>
<path d="M351.956 551.798C352.685 551.798 353.371 551.283 353.542 550.512L383.776 407.813C383.948 406.956 383.39 406.098 382.532 405.884C381.675 405.712 380.817 406.27 380.646 407.127L350.412 549.825C350.24 550.683 350.798 551.541 351.655 551.755C351.741 551.798 351.87 551.798 351.956 551.798Z" fill="black"/>
<path d="M268.202 263.7L273.562 262.028C274.463 261.728 274.977 260.784 274.72 259.841L274.506 259.069C274.205 258.169 273.262 257.654 272.319 257.912L266.958 259.584C266.057 259.884 265.543 260.827 265.8 261.771L266.014 262.542C266.315 263.443 267.258 263.957 268.202 263.7Z" fill="black"/>
<path d="M273.176 280.037C270.56 279.822 268.287 281.752 268.03 284.367L266.4 303.405C266.186 306.021 268.116 308.293 270.732 308.551C273.348 308.765 275.621 306.836 275.878 304.22L277.508 285.182C277.722 282.567 275.749 280.251 273.176 280.037Z" fill="white"/>
<path d="M271.161 310.137C272.662 310.137 274.077 309.623 275.235 308.636C276.521 307.522 277.336 306.021 277.465 304.306L279.094 285.268C279.394 281.795 276.778 278.708 273.305 278.407C269.788 278.064 266.743 280.723 266.443 284.196L264.814 303.234C264.685 304.906 265.2 306.578 266.272 307.865C267.387 309.151 268.888 309.966 270.603 310.094C270.775 310.137 270.989 310.137 271.161 310.137ZM272.747 281.623C272.833 281.623 272.919 281.623 273.005 281.623C274.72 281.752 276.007 283.295 275.878 285.011L274.248 304.048C274.12 305.764 272.576 307.05 270.86 306.921C270.046 306.836 269.274 306.45 268.716 305.806C268.159 305.163 267.901 304.349 267.987 303.534L269.617 284.496C269.788 282.867 271.161 281.623 272.747 281.623Z" fill="black"/>
<path d="M265.071 296.288L285.184 316.569C290.845 322.272 290.845 331.619 285.098 337.279L277.851 344.44C272.147 350.1 262.798 350.099 257.137 344.354L240.284 327.374C240.155 327.288 240.026 327.203 239.941 327.117L226.26 313.782C224.373 311.981 224.373 308.937 226.175 307.093C227.976 305.206 231.021 305.206 232.865 307.007L235.952 310.009C235.995 309.923 236.038 309.88 236.124 309.837L232.35 306.192C230.463 304.391 230.463 301.347 232.264 299.503C234.065 297.617 237.11 297.617 238.954 299.418L242.728 303.105L243.328 302.548L239.426 298.732C237.539 296.931 237.539 293.886 239.34 292.043C241.141 290.156 244.186 290.156 246.03 291.957L250.104 295.944C250.233 295.816 250.362 295.73 250.533 295.601L235.867 281.109C233.98 279.308 232.865 276.392 234.709 274.505C236.51 272.619 239.898 272.404 241.785 274.248L264.213 295.687C264.514 295.816 264.814 296.03 265.071 296.288Z" fill="white"/>
<path d="M267.558 350.314C271.718 350.314 275.835 348.727 279.009 345.597L286.256 338.437C289.344 335.392 291.016 331.319 291.059 326.945C291.059 322.572 289.387 318.498 286.342 315.411L266.229 295.13C266.014 294.915 265.757 294.701 265.5 294.529L242.9 272.962C240.455 270.561 236.081 270.689 233.594 273.262C232.35 274.505 231.921 276.221 232.393 278.064C232.736 279.522 233.594 280.937 234.794 282.138L241.699 288.998C240.412 289.213 239.211 289.813 238.225 290.799C236.724 292.343 236.167 294.487 236.553 296.459C234.623 296.202 232.65 296.845 231.192 298.303C229.991 299.503 229.391 301.133 229.391 302.805C229.391 303.234 229.434 303.62 229.52 304.006C227.847 304.048 226.26 304.692 225.06 305.935C223.859 307.136 223.258 308.765 223.258 310.437C223.258 312.152 223.944 313.739 225.188 314.897L239.254 328.575L256.022 345.469C259.196 348.684 263.399 350.314 267.558 350.314ZM238.482 274.505C239.297 274.505 240.112 274.763 240.67 275.277L263.527 297.102C263.656 297.188 263.784 297.317 263.913 297.445L284.026 317.727C286.471 320.171 287.8 323.472 287.8 326.945C287.8 330.418 286.428 333.72 283.94 336.164L276.693 343.325C274.248 345.769 270.946 347.012 267.473 347.098C263.999 347.098 260.697 345.726 258.252 343.239L241.441 326.259L240.198 327.288L241.098 325.959L227.418 312.624C226.818 312.024 226.475 311.252 226.475 310.437C226.475 309.58 226.775 308.808 227.375 308.208C227.976 307.607 228.748 307.264 229.562 307.264C230.334 307.307 231.192 307.564 231.792 308.165L236.252 312.495L238.225 309.794L237.282 308.679L233.508 305.035C232.907 304.434 232.564 303.663 232.564 302.848C232.564 301.99 232.865 301.218 233.465 300.618C234.666 299.375 236.681 299.332 237.882 300.575L242.771 305.335L245.644 302.505L240.541 297.531C239.297 296.33 239.297 294.315 240.498 293.115C241.699 291.871 243.672 291.871 244.915 293.072L250.061 298.088L252.463 295.944L251.648 294.401L236.981 279.908C236.21 279.179 235.652 278.236 235.438 277.378C235.18 276.221 235.652 275.706 235.824 275.577C236.553 274.848 237.539 274.505 238.482 274.505Z" fill="black"/>
<path d="M402.302 565.09C361.648 591.074 335.402 553.47 335.402 553.47L245.301 351.043C243.328 344.74 247.402 338.136 253.921 337.022L293.461 334.449L382.404 529.158C382.404 529.158 389.394 544.208 380.388 551.669L402.302 565.09Z" fill="#267DFF"/>
<path d="M374.213 575.81C382.79 575.81 392.525 573.28 403.203 566.462L401.488 563.761C362.677 588.587 337.846 554.07 336.774 552.57L246.845 350.4C246.116 347.998 246.459 345.211 247.874 342.939C249.289 340.666 251.605 339.08 254.264 338.608L292.517 336.164L381.031 529.844C381.117 529.973 387.378 543.908 379.445 550.469L381.503 552.956C391.367 544.809 384.248 529.201 383.948 528.515L294.533 332.82L253.878 335.435C250.147 336.078 247.016 338.179 245.13 341.267C243.243 344.354 242.771 348.084 243.843 351.557L334.03 554.199C334.287 554.628 349.425 575.81 374.213 575.81Z" fill="black"/>
<path d="M88.5571 324.844L88.9002 328.703L84.1829 326.774C83.6682 326.559 83.1536 326.431 82.639 326.345L82.5532 325.316L81.0094 305.978C80.8807 304.52 82.1244 303.234 83.754 303.105C85.3836 302.976 86.7988 304.048 86.9275 305.506L88.5571 324.844Z" fill="white"/>
<path d="M104.897 335.221L92.3747 330.118L91.7314 323.772L90.1447 305.292C89.8874 302.248 86.9283 299.975 83.5404 300.275C80.1525 300.532 77.5794 303.234 77.8367 306.278L78.5658 315.583C77.4508 314.939 76.0785 314.639 74.6633 314.768C72.5619 314.982 70.7608 316.097 69.8173 317.684C68.5308 316.483 66.6867 315.797 64.6711 315.969C62.5698 316.183 60.8115 317.298 59.8251 318.884C58.5815 318.027 56.9947 317.555 55.2793 317.727C51.8485 318.07 49.3183 320.857 49.6185 323.944L51.3339 340.581C51.3339 340.709 51.3768 340.838 51.4197 340.966L53.178 361.805C53.5211 365.578 55.4509 369.052 58.7101 371.496C61.9694 373.94 66.0863 375.097 70.289 374.711L80.2383 373.854C80.3241 373.854 80.4098 373.854 80.4956 373.811C86.2851 373.254 91.2597 369.909 93.6184 365.107L107.899 343.025C109.443 340.109 108.028 336.507 104.897 335.221Z" fill="white"/>
<path d="M57.8087 342.639C56.1791 342.81 54.721 341.738 54.5495 340.28L52.8341 323.644C52.6625 322.186 53.9062 320.857 55.5358 320.685C57.1654 320.514 58.6664 321.586 58.7951 323.043L60.5104 339.68C60.682 341.138 59.4383 342.467 57.8087 342.639Z" fill="white"/>
<path d="M67.6723 345.34C66.0426 345.512 64.5845 344.44 64.413 342.982L62.2259 321.886C62.0543 320.428 63.298 319.099 64.9276 318.927C66.5572 318.756 68.0582 319.828 68.1869 321.285L70.374 342.381C70.5027 343.882 69.3019 345.211 67.6723 345.34Z" fill="white"/>
<path d="M75.8633 329.604C75.1342 330.976 75.0484 332.477 75.6488 333.892C76.2063 335.307 77.3642 336.421 78.8652 337.022L80.0231 337.493L80.6664 343.711C80.8379 345.169 79.5942 346.498 77.9646 346.669C76.335 346.841 74.8769 345.769 74.7054 344.311L72.2609 320.642C72.0894 319.184 73.3331 317.855 74.9627 317.684C76.5923 317.512 78.0933 318.584 78.2219 320.042L78.951 326.86C77.6216 327.46 76.5065 328.36 75.8633 329.604Z" fill="white"/>
<path d="M90.7872 363.649C90.7443 363.692 90.7443 363.778 90.7014 363.863C88.7716 367.851 84.6546 370.552 79.9373 370.938L69.988 371.796C62.9978 372.396 56.9082 367.765 56.3936 361.548L54.9784 345.126C55.9218 345.469 56.9939 345.683 58.0661 345.554C59.3097 345.426 60.4247 344.997 61.3253 344.354C62.1401 346.884 64.8848 348.599 67.9296 348.299C69.5163 348.127 70.9315 347.441 71.9179 346.455C72.99 348.556 75.4773 349.928 78.1791 349.671C81.567 349.328 84.0972 346.626 83.8398 343.582L83.3252 338.951L92.2882 342.596L93.6605 343.153L91.9022 345.94L89.6722 349.499C85.0406 348.17 76.8925 347.956 71.6177 354.945C71.1031 355.631 71.2746 356.531 72.0465 356.96C72.7756 357.389 73.8048 357.217 74.3194 356.531C80.066 348.942 89.3291 352.501 89.7151 352.629L91.0874 353.187L98.2491 341.738L80.1946 334.363C79.4656 334.063 78.9081 333.549 78.6508 332.862C78.3935 332.176 78.4364 331.448 78.7794 330.804C79.4656 329.432 81.2668 328.832 82.7677 329.475L103.438 337.922C104.939 338.522 105.668 340.366 104.982 341.738L90.7872 363.649Z" fill="white"/>
<path d="M93.6175 365.107C91.216 369.952 86.2414 373.254 80.4948 373.854C80.409 373.854 80.3233 373.854 80.2375 373.897L70.2882 374.754C66.0426 375.097 61.9257 373.94 58.7093 371.539C55.4501 369.094 53.5202 365.664 53.1772 361.848L51.4189 341.009C51.376 340.881 51.3331 340.752 51.3331 340.623L49.6177 323.987C49.3175 320.9 51.8477 318.112 55.2785 317.769C56.9939 317.598 58.5807 318.07 59.8243 318.927C60.8107 317.384 62.5689 316.226 64.6703 316.011C66.6859 315.797 68.5299 316.483 69.8165 317.727C70.8028 316.183 72.5611 315.025 74.6625 314.811C76.0777 314.682 77.4499 314.982 78.565 315.626L77.8359 306.321C77.5786 303.277 80.1517 300.575 83.5396 300.318C86.9275 300.061 89.8866 302.29 90.1439 305.335L91.7306 323.815L92.3739 330.161L104.896 335.264C108.027 336.55 109.485 340.152 107.941 343.067L93.6175 365.107ZM58.7951 323.001C58.6236 321.543 57.1655 320.471 55.5358 320.642C53.9062 320.814 52.6625 322.143 52.8341 323.601L54.5495 340.238C54.721 341.695 56.1791 342.767 57.8087 342.596C59.4383 342.424 60.682 341.095 60.5105 339.637L58.7951 323.001ZM68.1868 321.285C68.0153 319.828 66.5572 318.756 64.9276 318.927C63.298 319.099 62.0543 320.428 62.2259 321.886L64.413 342.982C64.5845 344.44 66.0426 345.512 67.6722 345.34C69.3019 345.169 70.5455 343.839 70.374 342.381L68.1868 321.285ZM78.179 320.085C78.0075 318.627 76.5494 317.555 74.9198 317.727C73.2901 317.898 72.0465 319.227 72.218 320.685L74.6625 344.354C74.834 345.812 76.2921 346.884 77.9217 346.712C79.5513 346.541 80.795 345.211 80.6234 343.754L79.9802 337.536L78.8223 337.065C77.3213 336.464 76.1634 335.349 75.6059 333.934C75.0484 332.519 75.1342 331.019 75.8203 329.647C76.4636 328.403 77.5786 327.503 78.8651 326.945L78.179 320.085ZM83.7111 303.148C82.0815 303.277 80.8379 304.563 80.9665 306.021L82.5104 325.359L82.5961 326.388C83.1108 326.474 83.6683 326.602 84.14 326.817L88.8573 328.746L88.5142 324.887L86.8417 305.592C86.7559 304.091 85.3408 303.019 83.7111 303.148ZM103.481 337.879L82.8106 329.432C81.3096 328.832 79.5084 329.432 78.8223 330.761C78.4792 331.405 78.4363 332.134 78.6936 332.82C78.9509 333.506 79.5084 334.02 80.2375 334.32L98.292 341.695L91.1302 353.144L89.7579 352.586C89.3719 352.415 80.1088 348.899 74.3623 356.488C73.8476 357.174 72.8184 357.346 72.0894 356.917C71.3603 356.488 71.1459 355.545 71.6605 354.902C76.9354 347.956 85.0835 348.127 89.715 349.456L91.945 345.897L93.7033 343.11L92.331 342.553L83.3681 338.908L83.8827 343.539C84.14 346.584 81.6098 349.285 78.2219 349.628C75.4773 349.885 73.0328 348.556 71.9607 346.412C70.9315 347.398 69.5592 348.127 67.9724 348.256C64.9276 348.556 62.183 346.841 61.3682 344.311C60.4676 344.954 59.3526 345.426 58.1089 345.512C56.9939 345.64 55.9647 345.426 55.0212 345.083L56.4364 361.505C56.951 367.765 63.0835 372.353 70.0309 371.753L79.9802 370.895C84.6975 370.509 88.8144 367.765 90.7014 363.778C90.7871 363.735 90.7871 363.649 90.83 363.606L105.068 341.653C105.711 340.366 104.982 338.522 103.481 337.879Z" fill="black"/>
<path d="M75.9726 169.771L77.8145 160.626C79.416 152.736 82.4879 146.173 87.0906 141.012C91.6542 135.833 99.0856 130.874 109.442 126.112C119.351 121.713 126.055 117.836 129.634 114.517C133.173 111.18 135.42 107.162 136.41 102.385C137.474 97.0299 136.346 92.5621 132.946 88.9466C129.547 85.3311 124.328 82.8197 117.25 81.3947C104.872 78.8815 89.9673 80.0703 72.5132 84.9044L64.5152 55.0922C84.9739 48.5149 105.522 47.346 126.099 51.5111C143.081 54.985 155.735 61.7675 164.104 71.9721C172.474 82.1767 175.284 94.047 172.498 107.661C170.652 116.711 166.999 124.14 161.555 129.908C156.112 135.676 146.793 141.474 133.563 147.379C124.474 151.632 118.539 155.058 115.837 157.692C113.135 160.326 111.242 164.081 110.26 169.05L108.775 176.475L75.9726 169.771ZM63.4165 211.25C64.8059 204.347 67.7301 199.46 72.1536 196.666C76.5771 193.872 82.3473 193.196 89.4253 194.621C96.2725 196.035 101.197 198.884 104.186 203.302C107.191 207.68 107.998 213.273 106.64 220.002C105.332 226.518 102.383 231.253 97.8321 234.225C93.281 237.196 87.6315 238.021 80.8623 236.642C73.9193 235.231 68.9341 232.308 65.9068 227.872C62.9576 223.473 62.0944 217.901 63.4165 211.25Z" fill="#267DFF"/>
<path d="M73.5259 235.994C69.7377 234.274 66.7689 231.89 64.637 228.803C61.3468 224.012 60.4087 217.983 61.8299 210.906C63.3183 203.577 66.4977 198.335 71.3149 195.296C76.0754 192.278 82.3035 191.528 89.7506 193.074C97.0025 194.531 102.304 197.691 105.533 202.407C108.802 207.14 109.684 213.191 108.266 220.364C106.877 227.267 103.655 232.395 98.7488 235.63C93.8607 238.825 87.7535 239.724 80.5975 238.264C78.0239 237.707 75.6348 236.952 73.5259 235.994ZM65.021 211.555C63.7588 217.762 64.5118 222.954 67.2939 226.996C70.0759 231.037 74.7664 233.779 81.2267 235.112C87.5308 236.374 92.8397 235.677 96.9971 232.951C101.211 230.203 103.887 225.862 105.114 219.733C106.412 213.447 105.62 208.238 102.898 204.271C100.155 200.247 95.4858 197.562 89.1036 196.264C82.4693 194.899 77.0611 195.504 73.0136 198.092C69.0193 200.563 66.3327 205.135 65.021 211.555ZM74.082 171.032L76.2669 160.299C77.9357 152.158 81.1493 145.283 85.8795 139.944C90.553 134.627 98.2469 129.504 108.734 124.661C118.473 120.326 125.103 116.509 128.476 113.332C131.756 110.254 133.858 106.453 134.767 102.063C135.753 97.19 134.76 93.2546 131.701 90.0293C128.561 86.6728 123.559 84.3069 116.829 82.9457C104.76 80.4786 89.9899 81.6815 72.8587 86.4269L71.301 86.8495L62.5162 53.9961L63.9567 53.5202C84.5858 46.879 105.574 45.6745 126.346 49.9283C143.598 53.4306 156.724 60.5217 165.275 70.9498C173.925 81.4702 176.834 93.9509 174.006 107.97C172.132 117.289 168.298 125.013 162.671 130.98C157.078 136.869 147.479 142.868 134.175 148.834C125.33 152.963 119.509 156.346 116.917 158.842C114.473 161.217 112.726 164.755 111.768 169.358L109.94 178.369L74.082 171.032ZM126.489 82.6241C129.574 84.0251 132.117 85.7919 134.095 87.8675C137.836 91.8733 139.156 96.8521 137.958 102.712C136.922 107.797 134.476 112.149 130.696 115.706C127.008 119.163 120.246 123.061 110.092 127.585C100.02 132.24 92.7199 137.118 88.3017 142.08C83.9579 146.982 80.9746 153.35 79.4189 160.93L77.8633 168.511L107.492 174.527L108.673 168.706C109.741 163.447 111.775 159.379 114.718 156.525C117.587 153.731 123.522 150.305 132.895 145.945C145.88 140.165 155.142 134.388 160.401 128.819C165.625 123.328 169.189 116.094 170.932 107.374C173.587 94.3598 170.867 82.8124 162.86 73.0549C154.792 63.2228 142.294 56.5113 125.778 53.1544C106.031 49.1311 86.1109 50.1613 66.4574 56.2097L73.6297 82.963C90.5764 78.4164 105.372 77.366 117.536 79.8297C120.862 80.4925 123.873 81.4358 126.489 82.6241Z" fill="black"/>
<path d="M193.796 279.136C201.687 279.136 208.12 272.705 208.12 264.858C208.12 256.968 201.687 250.537 193.796 250.537C185.906 250.537 179.473 256.968 179.473 264.858C179.473 272.747 185.906 279.136 193.796 279.136ZM193.796 253.752C199.929 253.752 204.904 258.726 204.904 264.858C204.904 270.989 199.929 275.92 193.796 275.92C187.664 275.92 182.689 270.947 182.689 264.858C182.689 258.726 187.664 253.752 193.796 253.752Z" fill="black"/>
<path d="M210.95 232.142C216.954 232.142 221.843 227.254 221.843 221.251C221.843 215.248 216.954 210.36 210.95 210.36C204.947 210.36 200.058 215.248 200.058 221.251C200.058 227.254 204.947 232.142 210.95 232.142ZM210.95 213.619C215.196 213.619 218.627 217.049 218.627 221.294C218.627 225.539 215.196 228.969 210.95 228.969C206.705 228.969 203.274 225.539 203.274 221.294C203.274 217.049 206.705 213.619 210.95 213.619Z" fill="black"/>
<path d="M80.4948 285.954C98.2063 285.954 116.647 279.093 133.972 265.887C137.017 268.117 140.576 269.274 144.307 269.274C154.042 269.274 162.019 261.342 162.019 251.566C162.019 247.921 160.904 244.491 158.76 241.489C175.056 221.251 187.621 195.953 195.083 168.296C216.054 90.73 191.052 16.2508 139.333 2.27256C114.159 -4.54505 86.5845 3.81617 61.6255 25.7269C36.881 47.5089 17.6686 80.1391 7.5049 117.615C-2.61591 155.09 -2.48723 192.951 7.93378 224.209C18.4406 255.768 38.0818 276.907 63.2551 283.681C68.873 285.225 74.6625 285.954 80.4948 285.954ZM134.015 261.814L132.986 262.628C110.471 280.165 86.027 286.554 64.07 280.594C39.9687 274.077 21.1423 253.71 10.9786 223.266C0.772003 192.565 0.643341 155.39 10.5926 118.515C20.5419 81.6399 39.4112 49.5671 63.7269 28.2138C87.8281 6.98915 114.374 -1.07193 138.475 5.44554C188.479 18.9521 212.451 91.6733 191.952 167.525C184.448 195.224 171.839 220.436 155.457 240.503L154.643 241.532L155.457 242.561C157.645 245.22 158.76 248.35 158.76 251.651C158.76 259.627 152.284 266.144 144.265 266.144C140.877 266.144 137.66 264.944 135.001 262.671L134.015 261.814Z" fill="black"/>
</g>
<defs>
<clipPath id="clip0">
<rect width="443" height="761" fill="white" transform="matrix(-1 0 0 1 443 0)"/>
</clipPath>
</defs>
</svg>
