<svg width="93" height="110" viewBox="0 0 93 110" fill="none" xmlns="http://www.w3.org/2000/svg">
<g clip-path="url(#clip0)">
<path d="M22.8821 81.2236L22.2967 77.0468C21.7876 73.4338 22.1185 70.2051 23.2639 67.3095C24.4092 64.4396 26.8017 61.1852 30.4413 57.6234C33.9537 54.241 36.219 51.6017 37.2116 49.6542C38.2042 47.7067 38.5606 45.6568 38.2551 43.4787C37.9243 41.0443 36.7535 39.3019 34.7937 38.3025C32.8338 37.2775 30.2377 36.9957 27.0308 37.4569C21.4313 38.2513 15.3228 40.9931 8.67982 45.708L0.840576 34.2538C8.50165 28.3858 16.9772 24.7728 26.2927 23.4403C33.9792 22.3384 40.3422 23.3378 45.3817 26.4127C50.4212 29.4877 53.3991 34.1001 54.2645 40.3012C54.8499 44.4268 54.4172 48.1167 52.9664 51.3967C51.5157 54.651 48.4614 58.5459 43.7782 63.0302C40.5713 66.2077 38.586 68.5651 37.8479 70.077C37.0843 71.5888 36.8807 73.485 37.1861 75.74L37.7206 79.0968L22.8821 81.2236ZM23.8238 100.724C23.3911 97.5721 23.8747 95.0609 25.3255 93.2159C26.7762 91.371 29.0924 90.2179 32.2994 89.7566C35.4045 89.321 37.8988 89.8079 39.8332 91.2172C41.7675 92.6266 42.9383 94.8815 43.371 97.9565C43.7782 100.929 43.2692 103.389 41.793 105.336C40.3168 107.284 38.0515 108.488 34.9973 108.924C31.8667 109.359 29.3215 108.873 27.3871 107.463C25.4273 106.003 24.2565 103.773 23.8238 100.724Z" fill="white"/>
<path d="M32.8848 110C30.5178 110 28.4816 109.385 26.8272 108.181C24.6638 106.592 23.3403 104.132 22.8822 100.826C22.3986 97.4184 22.984 94.6509 24.5874 92.6009C26.1909 90.551 28.7361 89.2697 32.1722 88.7829C35.5064 88.296 38.2807 88.8598 40.3932 90.3972C42.5312 91.9603 43.8547 94.4459 44.3128 97.7771C44.7709 100.98 44.1601 103.722 42.5312 105.874C40.9022 108.027 38.4079 109.359 35.0992 109.821C34.361 109.949 33.5975 110 32.8848 110ZM34.412 90.551C33.8011 90.551 33.1393 90.6022 32.4521 90.7047C29.5252 91.1147 27.3872 92.1653 26.0891 93.8053C24.8165 95.4453 24.3838 97.7002 24.7656 100.57C25.1474 103.363 26.1909 105.362 27.9471 106.618C29.6779 107.873 31.994 108.309 34.8701 107.899C37.6444 107.489 39.7314 106.413 41.0295 104.696C42.353 102.928 42.8111 100.75 42.4294 98.0333C42.0476 95.2403 40.9786 93.1903 39.2733 91.9347C37.9752 91.0378 36.3463 90.551 34.412 90.551ZM22.0931 82.2999L21.3805 77.175C20.846 73.4338 21.2023 69.9745 22.424 66.9508C23.6203 63.9527 26.1146 60.5959 29.8306 56.9316C33.2666 53.6516 35.4809 51.0379 36.4227 49.2186C37.3135 47.4761 37.6444 45.5799 37.3644 43.6068C37.059 41.48 36.0918 40.0194 34.412 39.1481C32.6303 38.2256 30.2124 37.9694 27.2345 38.405C21.8132 39.1737 15.781 41.8899 9.3162 46.4767L8.52718 47.0405L-0.355591 34.0232L0.357067 33.4595C8.0945 27.5146 16.8246 23.799 26.2418 22.4665C34.1065 21.3391 40.7495 22.3897 45.9672 25.5415C51.2612 28.7446 54.3918 33.6645 55.3081 40.1218C55.919 44.4011 55.4608 48.3217 53.9337 51.7298C52.4575 55.0866 49.276 59.1096 44.5164 63.6708C41.4113 66.7458 39.4769 69.0263 38.7897 70.4613C38.128 71.7938 37.9243 73.5106 38.2298 75.5606L38.8406 79.8912L22.0931 82.2999ZM29.8306 36.2782C31.9431 36.2782 33.7502 36.6625 35.2519 37.4313C37.4917 38.61 38.8406 40.5831 39.2224 43.3505C39.5533 45.708 39.1715 47.9886 38.077 50.1154C37.0081 52.1654 34.7428 54.856 31.1032 58.3409C27.5908 61.8002 25.2492 64.952 24.1293 67.6939C23.0349 70.4101 22.7294 73.5106 23.213 76.9187L23.6712 80.1218L36.6008 78.2768L36.27 75.8425C35.9391 73.4081 36.1681 71.3069 37.0081 69.6157C37.8225 67.9757 39.8078 65.5927 43.1166 62.3127C47.6979 57.9053 50.7267 54.0872 52.1011 50.961C53.4501 47.8861 53.8573 44.3243 53.3228 40.4037C52.4829 34.4588 49.7341 30.1539 44.8982 27.2071C40.0623 24.2603 33.852 23.3121 26.4454 24.3628C17.639 25.6184 9.46891 29.0008 2.16416 34.4332L8.93442 44.3243C15.3738 39.8912 21.4059 37.2519 26.9036 36.4575C27.9471 36.355 28.9143 36.2782 29.8306 36.2782Z" fill="white"/>
<path d="M68.1645 37.4175C68.4954 35.9569 69.1317 34.9319 70.0989 34.3682C71.0406 33.8045 72.2623 33.702 73.764 34.0351C75.2147 34.3682 76.2328 35.0088 76.8437 35.9569C77.4545 36.905 77.6072 38.0838 77.2764 39.5187C76.9709 40.9025 76.3092 41.8762 75.342 42.4912C74.3748 43.1062 73.1531 43.2343 71.7533 42.9012C70.3025 42.5681 69.259 41.9274 68.6481 40.9537C67.9863 40.0312 67.8336 38.8269 68.1645 37.4175ZM71.0406 28.6795L71.4733 26.7321C71.8551 25.0665 72.5423 23.6828 73.5604 22.6065C74.553 21.5303 76.1565 20.5053 78.3708 19.5572C80.4833 18.6603 81.9341 17.8916 82.6977 17.1997C83.4612 16.5079 83.9703 15.6623 84.1993 14.6629C84.4538 13.5354 84.2248 12.5617 83.5376 11.793C82.8249 10.9986 81.7305 10.4349 80.2543 10.0761C77.6581 9.48676 74.5021 9.6405 70.7861 10.5886L69.2335 4.2081C73.5858 2.92687 77.9381 2.77312 82.2904 3.79811C85.8537 4.61809 88.5007 6.15556 90.206 8.35928C91.9113 10.563 92.4458 13.1254 91.784 15.9954C91.3514 17.8916 90.5369 19.4547 89.3407 20.6591C88.1699 21.8378 86.1591 23.0421 83.334 24.2209C81.3741 25.0665 80.127 25.784 79.5161 26.3221C78.9307 26.8602 78.5235 27.6546 78.269 28.7052L77.9127 30.2683L71.0406 28.6795Z" fill="white"/>
<path d="M73.1277 44.0799C72.6187 44.0799 72.0587 44.003 71.4988 43.8749C69.7935 43.4905 68.5463 42.6961 67.8082 41.5174C67.0447 40.3387 66.8665 38.8781 67.2228 37.2125C67.6046 35.4956 68.4191 34.2657 69.5899 33.5482C70.7607 32.8563 72.2369 32.7026 73.9422 33.1126C75.622 33.4969 76.8437 34.2913 77.6073 35.4444C78.3708 36.6231 78.549 38.0837 78.1672 39.7493C77.8109 41.3637 76.9964 42.568 75.8002 43.3368C75.0366 43.8236 74.1458 44.0799 73.1277 44.0799ZM69.0808 37.6481C68.8263 38.8012 68.9281 39.7237 69.3863 40.4668C69.8698 41.2099 70.7098 41.7224 71.906 42.0043C73.0768 42.2862 74.0185 42.1837 74.7821 41.6968C75.5457 41.2099 76.0292 40.4412 76.2838 39.3137C76.5637 38.135 76.4619 37.2125 75.9783 36.4694C75.4948 35.7263 74.6803 35.2394 73.484 34.9575C72.2623 34.6757 71.2443 34.7525 70.5316 35.1882C69.8698 35.6238 69.3608 36.4438 69.0808 37.6481ZM78.6508 31.4213L69.8953 29.397L70.5571 26.5271C70.9643 24.6821 71.7533 23.1446 72.8477 21.9659C73.9422 20.7872 75.622 19.7109 77.9636 18.6859C79.9743 17.8403 81.3487 17.0972 82.0359 16.4822C82.6722 15.9185 83.054 15.2523 83.2322 14.4323C83.4358 13.6123 83.3085 12.9717 82.7995 12.4079C82.2396 11.7929 81.3233 11.3061 80.0252 11.0242C77.5818 10.4605 74.553 10.6142 70.9897 11.5111L70.0735 11.7417L68.1137 3.54183L68.979 3.28559C73.484 1.95311 78.0145 1.82499 82.4941 2.84997C86.261 3.7212 89.1116 5.3868 90.9442 7.76988C92.8276 10.2042 93.413 13.0485 92.7004 16.226C92.2168 18.3016 91.3259 20.044 90.0024 21.3509C88.7298 22.6321 86.6428 23.8877 83.6903 25.1177C81.4251 26.1171 80.5343 26.7064 80.1779 27.0139C79.7453 27.4239 79.4144 28.0645 79.2108 28.9101L78.6508 31.4213ZM72.186 27.9364L77.2255 29.1151L77.3782 28.4745C77.6582 27.2445 78.1672 26.2708 78.9053 25.6046C79.5671 24.9896 80.8651 24.2465 82.9777 23.3496C85.6756 22.1965 87.5845 21.069 88.6789 19.9672C89.7225 18.8909 90.4606 17.4816 90.8678 15.7647C91.4532 13.151 90.9951 10.9217 89.4425 8.92299C87.8899 6.89865 85.3956 5.4893 82.0868 4.72056C78.2181 3.8237 74.2985 3.87495 70.3789 4.87431L71.4733 9.43548C74.9348 8.66674 77.9382 8.56424 80.4579 9.15361C82.1377 9.53798 83.4103 10.2042 84.2248 11.1267C85.1156 12.1517 85.4211 13.4329 85.0902 14.8679C84.8357 16.0722 84.2248 17.0972 83.3085 17.9172C82.4432 18.6859 80.9415 19.5059 78.7017 20.454C76.6401 21.3509 75.1384 22.299 74.2222 23.2727C73.3822 24.1952 72.7459 25.4508 72.4151 26.937L72.186 27.9364Z" fill="white"/>
</g>
<defs>
<clipPath id="clip0">
<rect width="93" height="110" fill="white"/>
</clipPath>
</defs>
</svg>
